<svg width="32" height="33" viewBox="0 0 32 33" fill="none" xmlns="http://www.w3.org/2000/svg">
<path d="M29.8964 6.96038C31.2099 5.20217 31.9961 3.37671 31.9999 2.07256C31.9983 1.65023 31.9136 1.3202 31.7525 1.07434C31.7355 1.04428 31.6891 0.965584 31.6072 0.888042C31.5257 0.807206 31.4525 0.764016 31.4366 0.755284C31.1788 0.583154 30.8472 0.500122 30.4247 0.500122C29.1238 0.502318 27.2978 1.28799 25.5391 2.60364C24.1175 3.66743 22.6958 5.16557 20.7278 7.24012C20.3939 7.59196 20.0426 7.96189 19.671 8.34981L15.859 7.20734L15.8705 7.19641C16.0289 7.0363 16.1191 6.81612 16.1169 6.59976C16.1191 6.37137 16.0268 6.15118 15.8678 5.99275L15.1793 5.30324C15.0203 5.14314 14.8007 5.05137 14.5734 5.05137C14.3439 5.05137 14.1298 5.13989 13.9697 5.30162L12.9398 6.3321L12.3945 6.16927C12.512 6.0201 12.5769 5.8338 12.5747 5.65022C12.5769 5.41853 12.4873 5.20274 12.3262 5.04264L11.6345 4.35093C11.4766 4.1925 11.258 4.10178 11.0286 4.10178C10.8002 4.10178 10.5865 4.19088 10.4281 4.35203L9.48289 5.2967L5.60693 4.13566C5.52008 4.10999 5.42826 4.09634 5.32991 4.09634C5.05456 4.09964 4.7994 4.20181 4.6131 4.38649L3.25044 5.74967C3.09577 5.90428 3.00892 6.11354 3.0106 6.31186C3.00568 6.60415 3.16741 6.87406 3.42638 7.01283L11.5772 11.5663C11.6171 11.5887 11.7323 11.6739 11.775 11.7165L14.0987 14.0397C11.9252 16.3295 9.98882 18.5473 8.47981 20.4765C8.33884 20.6558 8.20551 20.8305 8.07437 21.0038L1.76872 20.4312C1.73813 20.4274 1.70367 20.4246 1.65996 20.4246C1.37091 20.4306 1.08846 20.5448 0.878681 20.7475L0.243232 21.3824C0.086422 21.536 -0.00210056 21.7435 9.55104e-05 21.9441C-0.00481951 22.25 0.180383 22.533 0.458499 22.657L4.89446 24.7639C4.93268 24.783 5.03213 24.8535 5.06439 24.8857L5.43265 25.2512C5.31736 25.5758 5.2589 25.8571 5.25561 26.1041C5.25451 26.4347 5.36107 26.7177 5.56489 26.9215L5.58073 26.9352L5.58507 26.9384C5.79432 27.1412 6.06533 27.2444 6.40081 27.2444C6.64232 27.2406 6.92096 27.1833 7.24661 27.0685L7.62031 27.4417C7.64927 27.4723 7.71866 27.5695 7.7367 27.6083L9.83912 32.0345C9.96754 32.317 10.2445 32.5 10.5461 32.5H10.5504C10.7592 32.5 10.9586 32.4164 11.111 32.2634L11.7617 31.6105C11.9546 31.4073 12.0682 31.127 12.0726 30.8314C12.0726 30.7954 12.071 30.7675 12.0699 30.7522L11.4956 24.4236C11.6683 24.2935 11.8431 24.1597 12.0229 24.0198C13.9548 22.5086 16.1731 20.5705 18.4585 18.4003L20.7839 20.7279C20.8216 20.7639 20.9096 20.8793 20.9353 20.9273L25.48 29.0633C25.6188 29.3261 25.886 29.4884 26.1821 29.4884C26.3936 29.4884 26.5946 29.4048 26.7487 29.2497L28.1212 27.8783C28.2993 27.692 28.3993 27.439 28.402 27.1625C28.402 27.0697 28.3889 26.9795 28.3649 26.8948L27.2038 23.0178L28.1484 22.0715C28.3075 21.9135 28.3976 21.6939 28.3976 21.4683C28.3976 21.2415 28.3096 21.0285 28.1496 20.8662L27.4568 20.1739C27.2984 20.0149 27.0792 19.9242 26.8536 19.9242C26.6624 19.9242 26.4756 19.9882 26.3296 20.1035L26.1673 19.5604L27.1983 18.5294C27.3568 18.3704 27.447 18.1507 27.447 17.9245C27.447 17.6967 27.359 17.4831 27.1983 17.323L26.5088 16.6334C26.3498 16.4722 26.1291 16.381 25.9023 16.381C25.6745 16.381 25.4537 16.4733 25.298 16.6323L25.2909 16.6389L24.1489 12.8274C24.5434 12.4515 24.9177 12.0936 25.2756 11.7565C27.3428 9.79493 28.8354 8.37873 29.8964 6.96038Z" fill="white"/>
</svg>
