<svg width="225" height="61" viewBox="0 0 225 61" fill="none" xmlns="http://www.w3.org/2000/svg">
<path d="M121.291 21.388H121.743L122.47 21.289C123.142 20.882 123.715 20.6086 124.188 20.4761C124.665 20.334 125.313 20.1471 126.127 19.9048C126.909 19.6747 128.122 19.4658 129.764 19.3023C130.744 19.0931 131.362 18.9721 131.603 18.9396C131.834 18.9396 132.814 18.8399 134.555 18.643L138.94 18.4895L145.737 18.2363C146.376 18.2363 147.423 18.2249 148.845 18.1927C150.276 18.1596 151.376 18.1376 152.16 18.1376L156.853 17.9835L160.435 17.6767C161.082 17.5782 161.402 17.3913 161.402 17.1064C161.171 16.6115 160.567 15.9968 159.607 15.2725L156.654 13.1542C155.905 12.6702 155.178 12.4287 154.461 12.4287C154.121 12.33 153.724 12.2866 153.283 12.2866H152.369L145.075 12.5389C142.652 12.8463 141.087 13.0435 140.372 13.1542C139.656 13.2524 138.059 13.5149 135.58 13.955C133.102 14.3943 130.556 15.0419 127.967 15.8872C125.356 16.7765 122.954 17.9735 120.775 19.4547L120.576 20.213L120.467 20.7284C120.576 21.168 120.85 21.388 121.291 21.388Z" fill="white"/>
<path d="M134.453 1.0694L136.127 6.10609H137.037L138.808 1.29972V6.10609H139.824V0.136719H138.361L136.614 4.91496L135.038 0.136719H133.458V6.10609H134.453V1.0694Z" fill="white"/>
<path d="M125.91 6.23981C126.433 6.23981 126.914 6.1185 127.357 5.875C127.799 5.63209 128.134 5.29042 128.368 4.84855C128.598 4.40932 128.714 3.80511 128.714 3.03565C128.714 2.08744 128.455 1.34438 127.93 0.807572C127.408 0.26842 126.734 0 125.91 0C125.17 0 124.541 0.222412 124.027 0.663696C123.408 1.19523 123.1 2.01479 123.1 3.12035C123.1 4.12921 123.36 4.90044 123.877 5.43607C124.396 5.9723 125.073 6.23981 125.91 6.23981ZM124.646 1.4062C124.982 1.02879 125.403 0.838018 125.91 0.838018C126.41 0.838018 126.829 1.0288 127.166 1.40826C127.502 1.78772 127.67 2.34794 127.67 3.08693C127.67 3.87016 127.502 4.45329 127.168 4.83567C126.833 5.21689 126.414 5.40909 125.91 5.40909C125.403 5.40909 124.982 5.21835 124.646 4.83713C124.312 4.45738 124.145 3.886 124.145 3.12035C124.145 2.35528 124.312 1.78419 124.646 1.4062Z" fill="white"/>
<path d="M178.45 1.58051V6.1056H179.465V0.13623H178.372L175.556 4.68973V0.13623H174.542V6.1056H175.637L178.45 1.58051Z" fill="white"/>
<path d="M165.656 3.45837H168.473V6.10609H169.485V0.136719H168.473V2.6221H165.656V0.136719H164.641V6.10609H165.656V3.45837Z" fill="white"/>
<path d="M145.922 0.972992H148.617V6.10609H149.633V0.136719H144.904V6.10609H145.922V0.972992Z" fill="white"/>
<path d="M191.286 53.4603L190.468 52.9434L190.928 53.4603H191.286Z" fill="white"/>
<path d="M115.777 3.34732C116.008 3.34732 116.207 3.40447 116.37 3.52373C116.536 3.64035 116.729 3.88677 116.951 4.25656L118.036 6.10609H119.152L118.042 4.25656C117.619 3.56416 117.19 3.15833 116.755 3.042C117.021 2.91922 117.218 2.78268 117.346 2.63149C117.474 2.48117 117.616 2.21305 117.771 1.82363C117.932 1.41458 118.052 1.16875 118.133 1.08671C118.207 1.0073 118.379 0.96744 118.644 0.96744L118.927 0.972992V0.136719H118.722C118.365 0.136719 118.107 0.161652 117.945 0.214981C117.783 0.267138 117.64 0.369389 117.517 0.518242C117.393 0.668267 117.23 0.979168 117.03 1.45063C116.778 2.04751 116.587 2.40645 116.459 2.53128C116.328 2.65464 116.102 2.71527 115.777 2.71527V0.136719H114.764V6.10609H115.777V3.34732Z" fill="white"/>
<path d="M185.029 4.4981L183.936 6.1056H185.194L186.078 4.80136C186.415 4.30411 186.669 4.00817 186.843 3.91704C187.018 3.82503 187.284 3.77875 187.643 3.77875H188.228V6.1056H189.237V0.13623H186.462C185.766 0.13623 185.236 0.297705 184.87 0.620024C184.503 0.942343 184.32 1.36047 184.32 1.87911C184.32 2.316 184.46 2.70513 184.739 3.04151C185.021 3.37936 185.449 3.58623 186.03 3.66652C185.697 3.72952 185.365 4.00641 185.029 4.4981ZM185.737 2.69604C185.48 2.52873 185.352 2.26825 185.352 1.91165C185.352 1.6617 185.44 1.44075 185.614 1.25556C185.788 1.06657 186.179 0.972503 186.784 0.972503H188.228V2.94688H187.105C186.45 2.94688 185.995 2.86277 185.737 2.69604Z" fill="white"/>
<path d="M104.193 12.9153L104.208 12.9292L104.289 12.915L104.193 12.9153Z" fill="white"/>
<path d="M156.695 2.665C156.294 2.71305 155.994 2.76519 155.795 2.81589C155.522 2.8909 155.282 3.00313 155.063 3.14905C154.848 3.29439 154.672 3.48839 154.54 3.72925C154.405 3.97187 154.34 4.23849 154.34 4.5321C154.34 5.02906 154.517 5.44018 154.868 5.75957C155.221 6.08013 155.727 6.23981 156.386 6.23981C156.786 6.23981 157.159 6.17506 157.507 6.04408C157.854 5.91135 158.214 5.68717 158.592 5.36837C158.621 5.65084 158.691 5.8964 158.795 6.10532H159.855C159.727 5.87706 159.641 5.63736 159.599 5.38771C159.555 5.14011 159.533 4.54586 159.533 3.60323V2.25417C159.533 1.80556 159.518 1.49408 159.484 1.3215C159.423 1.04372 159.319 0.81547 159.167 0.632334C159.017 0.450663 158.781 0.300626 158.462 0.179902C158.143 0.0606443 157.729 0 157.216 0C156.701 0 156.247 0.070608 155.857 0.210377C155.465 0.351319 155.165 0.552646 154.959 0.813724C154.752 1.07187 154.605 1.41557 154.516 1.83751L155.507 1.97406C155.614 1.54977 155.782 1.2553 156.011 1.0874C156.24 0.920671 156.592 0.838018 157.069 0.838018C157.578 0.838018 157.967 0.951137 158.226 1.18174C158.417 1.34847 158.515 1.63973 158.515 2.05318C158.515 2.08922 158.513 2.17801 158.507 2.31572C158.122 2.45198 157.517 2.56713 156.695 2.665ZM158.507 3.48018C158.507 3.92586 158.453 4.26311 158.344 4.49166C158.201 4.78761 157.977 5.02143 157.672 5.19167C157.37 5.36338 157.02 5.44749 156.629 5.44749C156.235 5.44749 155.933 5.35664 155.73 5.17937C155.525 4.99828 155.422 4.77354 155.422 4.50308C155.422 4.32698 155.47 4.16729 155.563 4.02312C155.656 3.87749 155.791 3.76849 155.963 3.69348C156.135 3.61876 156.432 3.55165 156.851 3.49217C157.586 3.38639 158.138 3.25982 158.507 3.10833V3.48018Z" fill="white"/>
<path d="M98.7448 1.581V6.10609H99.761V0.136719H98.6678L95.8519 4.69022V0.136719H94.8367V6.10609H95.9296L98.7448 1.581Z" fill="white"/>
<path d="M89.4866 5.69506C89.8548 5.42314 90.0579 5.00269 90.0947 4.43658C90.0947 4.08261 90.0026 3.77993 89.8151 3.52324C89.6287 3.26568 89.3955 3.09074 89.112 2.99756C89.3502 2.85486 89.5293 2.67642 89.6469 2.46603C89.7663 2.25447 89.8259 2.00512 89.8259 1.72119C89.8259 1.36458 89.7227 1.05866 89.5234 0.803446C89.3208 0.548521 89.0783 0.373592 88.8013 0.278361C88.5205 0.184009 88.0909 0.13623 87.5167 0.13623H85.1748V6.1056H87.8783C88.5805 6.1056 89.1168 5.96991 89.4866 5.69506ZM86.1915 0.972503H87.3103C87.8507 0.972503 88.2341 1.03404 88.4564 1.15916C88.6804 1.28135 88.7907 1.50229 88.7907 1.81699C88.7907 2.00774 88.7278 2.17185 88.6005 2.30839C88.4717 2.44465 88.3282 2.53635 88.165 2.58118C88.0039 2.6263 87.7072 2.6474 87.2732 2.6474H86.1915V0.972503ZM86.1915 5.27285V3.48046H87.4206C87.861 3.48046 88.1821 3.50185 88.382 3.5455C88.5793 3.58858 88.7422 3.69202 88.8636 3.85552C88.9903 4.01785 89.0521 4.19484 89.0521 4.38647C89.04 4.71025 88.9277 4.94143 88.7128 5.07329C88.499 5.20808 88.1044 5.27285 87.5279 5.27285H86.1915Z" fill="white"/>
<path d="M104.182 12.915L103.661 12.9168L103.746 13.0082L104.192 12.9312L104.182 12.915Z" fill="white"/>
<path d="M224.592 35.5391C221.124 37.9603 218.875 39.3774 217.873 39.7846L214.139 40.8683C213.588 40.8683 213.201 40.6924 212.961 40.3499C212.728 40.0062 212.607 39.6627 212.607 39.3314C212.607 38.579 212.707 37.9378 212.916 37.4303L213.72 35.7828L214.898 34.0467L216.64 31.9916L219.383 28.8189C219.966 27.9674 220.254 27.3148 220.254 26.8728L219.802 25.5459L219.029 24.2197L218.325 23.0365C218.084 22.7264 217.951 22.5394 217.918 22.4724C217.84 22.4396 217.751 22.3962 217.653 22.3299C216.98 22.5284 216.419 22.9043 215.978 23.446C215.67 23.1472 215.328 22.8483 214.943 22.5718C214.535 22.3299 214.128 22.1632 213.72 22.0749C212.806 21.6663 211.715 21.4556 210.459 21.4556L207.86 21.6548C206.669 21.8209 204.587 23.0474 201.636 25.3367C198.627 27.6249 197.01 30.1346 196.777 32.8759C196.71 32.9742 196.677 33.2182 196.677 33.582C196.677 34.7767 197.174 35.794 198.164 36.6125C199.255 37.4304 200.435 37.839 201.733 37.839L203.618 37.5292L204.631 37.1763L205.413 36.7677C203.839 38.2701 202.374 39.553 201.019 40.6152C199.354 41.7647 197.583 42.3394 195.709 42.3394C195.334 42.2497 195.146 42.073 195.146 41.8411L195.102 40.4039C194.992 39.6078 194.749 39.0337 194.385 38.6684C193.978 38.381 193.548 38.2488 193.108 38.2488L191.677 38.5032C191.552 38.5274 191.433 38.5669 191.318 38.6197C191.704 38.2488 192.133 37.8363 192.602 37.3858L192.182 34.5002L189.021 36.9651L185.717 39.3314C184.217 40.2826 182.983 40.7576 182.035 40.7576C180.913 40.7576 180.35 40.2826 180.35 39.3314C180.45 38.5477 180.681 37.7407 181.068 36.9223C181.407 36.1265 182.213 34.9197 183.468 33.2742C184.725 31.6824 185.815 30.4656 186.728 29.6478C187.237 29.0948 187.654 28.6747 188.007 28.3649C188.35 28.0993 188.625 27.8568 188.823 27.6582C188.998 27.4481 189.186 27.1941 189.396 26.8849C189.548 26.6084 189.649 26.3544 189.692 26.1204C189.825 25.8773 189.892 25.535 189.892 25.0824C189.892 23.2469 189.683 22.2077 189.273 21.9531C188.899 21.6223 188.58 21.4556 188.304 21.4556C187.732 21.4556 186.576 22.1856 184.835 23.6555C183.821 24.3743 183.072 24.9496 182.6 25.3916C182.081 25.8773 181.407 26.5075 180.594 27.282C179.79 28.0784 179.216 28.6413 178.864 28.985L172.331 34.9319C170.699 36.292 169.103 37.397 167.539 38.2488C165.942 39.1434 164.885 39.5866 164.377 39.5866C164.036 39.5406 163.859 39.2216 163.859 38.6026C163.859 37.4194 164.179 36.3584 164.828 35.4402C165.479 34.5123 166.516 33.5386 167.947 32.5106C169.347 31.5157 170.129 30.9079 170.304 30.6651L172.331 28.5643L174.314 26.3095C174.864 25.6347 175.141 25.0703 175.141 24.6283C175.141 23.9108 174.986 23.5234 174.69 23.446C174.314 23.2357 173.72 23.1362 172.894 23.1362L171.108 23.2469L169.478 23.446C168.929 23.5558 167.99 24.0539 166.668 24.9381C165.313 25.8224 163.715 27.7795 161.875 30.8306C161.074 32.1277 160.443 33.4206 159.986 34.7076L153.592 38.9776C153.327 39.1334 153.085 39.2765 152.887 39.3774C152.677 39.5196 152.434 39.6424 152.16 39.74C151.85 39.8734 151.631 39.9628 151.499 39.9952C151.367 40.0277 150.98 40.1159 150.332 40.2502C149.848 40.2502 149.471 40.1159 149.208 39.8294C148.855 39.3529 148.689 38.9339 148.689 38.558L149.108 37.1763L149.811 35.6394L151.047 34.0467L152.764 32.1123L155.53 28.8189C156.114 28.0456 156.4 27.4033 156.4 26.8849L155.949 25.5574L155.221 24.2197L154.461 23.0474C154.317 22.8049 154.219 22.6727 154.153 22.6388L153.855 22.3299C153.24 22.5394 152.745 22.7722 152.369 23.0474L150.686 24.2197L136.031 35.8501L135.891 35.6842L139.866 29.8581C141.321 27.6686 142.058 25.9994 142.058 24.8399C142.058 23.9108 141.815 23.1584 141.341 22.5718C140.824 22.031 140.163 21.7648 139.359 21.7648C137.85 21.7648 135.823 22.7721 133.278 24.7726C130.7 26.7955 128.684 28.4543 127.263 29.7475C125.831 31.0401 124.496 32.3227 123.274 33.582L119.243 37.6735L118.734 38.0497L118.484 37.839L118.272 37.4418C118.272 36.8225 118.494 36.2363 118.935 35.6842L120.201 34.003L123.584 30.2107L125.775 27.4915C126.259 26.7406 126.502 26.1204 126.502 25.6468C126.392 24.9706 126.15 24.6283 125.775 24.6283C125.467 24.4846 125.223 24.3852 125.016 24.3194C124.773 24.2866 124.288 24.2421 123.529 24.1648C122.415 24.1648 121.258 24.5735 120.057 25.3916C118.868 26.2426 117.304 27.9562 115.363 30.522C114.526 31.6243 113.868 32.7709 113.388 33.9602L99.5114 46.2961L99.4023 46.1958L109.205 31.593C110.099 30.2889 110.572 29.5256 110.64 29.294L111.4 27.9674C111.607 27.5464 111.739 27.2265 111.818 26.9725C111.85 26.773 111.873 26.3756 111.873 25.8115C111.873 25.0824 111.697 24.297 111.354 23.446C111.081 22.7609 110.738 22.4287 110.33 22.4287C110.263 22.4287 110.198 22.4396 110.121 22.4724C109.481 22.6512 107.96 23.8435 105.581 26.0664L98.597 32.7201C97.3956 33.8151 96.3389 34.7651 95.4133 35.5948C94.4986 36.4139 93.5847 37.1763 92.67 37.8951C91.7118 38.6129 90.2576 39.111 88.3179 39.3774C88.3179 37.9724 88.7486 36.7007 89.5984 35.5391C90.5886 34.7551 91.5692 33.8924 92.5498 32.9632C93.508 32.0796 94.874 30.72 96.6367 28.8738C98.3891 27.0395 99.2594 25.535 99.2594 24.3628C99.1479 23.755 98.7516 23.0923 98.0783 22.3738C97.3638 21.6548 96.8243 21.2901 96.4494 21.2901C95.0496 21.2901 92.5386 23.2032 88.9356 27.0395C86.2909 29.849 84.6132 32.5248 83.9096 35.0761C79.9376 38.2376 77.2291 40.2156 75.7716 41.0126C74.2733 41.8623 73.0834 42.2946 72.2019 42.2946C71.012 42.2946 70.2078 42.0851 69.8003 41.6764L68.8318 40.6579L67.9159 39.3774L66.1203 37.4303C65.3059 36.6783 64.457 36.2038 63.5767 35.9931C64.5564 34.633 66.3296 33.13 68.8756 31.4933C71.4312 29.8469 73.3377 29.0284 74.5926 29.0284C75.1759 29.2391 75.4629 29.4371 75.4629 29.6478C75.5293 29.9127 75.7828 30.0564 76.2335 30.0564C77.2485 30.0564 78.3484 29.6811 79.5507 28.9302C80.7065 28.1778 81.291 27.5803 81.291 27.1377C81.291 25.967 80.982 24.8723 80.3652 23.8435C79.7268 22.8382 78.8883 22.3299 77.8651 22.3299C77.4234 22.3962 77.0054 22.4724 76.5981 22.5718C76.19 22.7052 75.706 22.9043 75.1545 23.1362C74.5488 23.4785 73.8428 23.8883 73.0619 24.3628C72.2898 24.8399 71.6521 25.237 71.1666 25.5459L66.7383 28.6313L61.5815 32.7762C60.7347 33.4837 59.7418 34.3231 58.6186 35.2856C57.4948 36.2363 56.5481 37.0657 55.7648 37.7944L55.8754 35.9931C56.4481 35.352 57.1984 34.6005 58.1229 33.7487C59.0035 32.9193 59.919 32.1235 60.8773 31.3287L64.7002 27.9674L66.1656 26.3095C66.7169 25.6347 66.9915 25.0703 66.9915 24.6283C66.9915 23.9108 66.8374 23.5234 66.5396 23.446C66.1656 23.2357 65.5705 23.1362 64.7549 23.1362L62.9587 23.2469L61.3292 23.446C60.8884 23.5558 60.0184 24.0205 58.7291 24.8399C57.3957 25.6569 55.7763 27.57 53.871 30.5654C53.0827 31.8226 52.4579 33.0046 51.9966 34.1107C51.9484 34.1261 51.8987 34.1526 51.8561 34.1981C50.3992 35.7654 43.1089 41.1173 41.7008 39.7846C40.238 38.4002 48.4245 26.2576 49.503 25.0511C50.9607 23.4216 54.8395 16.3043 48.1734 13.2018C45.6316 14.701 39.0763 21.4609 38.0416 21.7699C23.2149 30.6976 18.8707 26.3848 23.399 19.1991C26.902 13.6385 37.4198 7.43033 46.1338 9.2033C46.3093 9.1493 45.8189 9.74619 45.7316 10.5003C45.5681 11.8906 46.0267 13.6226 49.2954 11.4141C51.6605 9.81523 56.9027 7.64304 55.0024 4.45146C54.7969 4.10448 53.1101 2.80654 51.1722 1.98394C49.665 1.34515 47.885 1.10883 47.2772 1.0808C40.9363 0.791357 38.3207 1.10173 29.4526 5.02681C23.0976 7.84102 8.35557 21.0004 18.7843 30.5361C23.0667 34.4521 32.863 28.9939 36.8006 26.2812C37.1149 26.0655 36.3354 27.0404 35.8553 27.5234C31.532 31.0419 25.6689 34.7551 20.9463 36.8016C15.5827 39.124 16.1251 35.4464 13.0029 35.6332C9.33879 34.5733 -1.92171 42.9714 0.283756 45.8205C2.17991 48.2715 5.98399 48.927 9.17003 47.884C19.0554 44.6455 30.1951 36.9642 39.498 28.1176C37.451 32.9998 31.482 38.1494 33.0544 44.6942C35.0135 52.8436 49.8958 42.2925 51.1613 40.0584C51.2645 40.8429 51.4227 41.8086 51.6341 42.9581C52.0081 45.2126 52.769 46.3421 53.9266 46.3421C54.5323 46.2751 54.9386 46.1866 55.1482 46.0869C55.4572 45.7771 55.6437 45.5452 55.7101 45.3693C55.8198 45.2687 55.9747 45.0371 56.1841 44.7043C56.3384 44.362 56.4602 44.118 56.536 43.997L57.8577 41.9854L58.9711 40.7037L59.7967 39.8834C61.9793 43.2237 63.6975 45.4342 64.9642 46.5067C66.4181 47.5568 67.8503 48.0885 69.2393 48.0885C71.4856 48.0885 73.8975 46.9927 76.4767 44.804L83.56 38.6902C83.6997 40.5788 84.2977 42.1591 85.3559 43.4228C86.5796 44.8928 87.7019 45.6316 88.7278 45.6316C88.9918 45.5555 89.4766 45.3136 90.1594 44.9049C90.8094 44.5051 91.6016 43.9413 92.5498 43.2122L99.8218 37.4867L99.9186 37.6298L91.085 52.5984L89.9062 54.5331C89.4978 55.33 89.2882 56.0239 89.2882 56.6433C89.2882 57.496 89.4766 58.4342 89.8615 59.4631C90.2361 60.4801 90.6866 61 91.2267 61C91.8121 60.9215 92.2843 60.6468 92.67 60.1712L94.862 57.6606L112.434 38.2172C112.42 38.4837 112.413 38.7519 112.413 39.0233C112.413 40.7037 112.765 42.3704 113.482 44.0407C114.186 45.7431 115.211 46.6065 116.544 46.6065C117.193 46.4955 117.666 46.3421 117.965 46.1306L119.969 43.997L123.791 39.5196L128.013 34.9758L130.732 32.2017C131.514 31.5266 132.01 31.1844 132.209 31.1844C132.519 31.3166 132.66 31.4833 132.66 31.6824L132.408 32.1569L130.732 34.9198L129.048 37.4867L127.407 40.7037C126.8 41.9396 126.502 43.0679 126.502 44.0843C126.502 44.8813 126.768 45.523 127.306 46.0311C127.824 46.5392 128.507 46.7935 129.355 46.7935C130.38 46.7935 131.239 46.5067 131.956 45.9314C132.66 45.3894 133.289 44.8601 133.84 44.352C134.392 43.8315 134.952 43.2792 135.524 42.6929L146.045 33.0302L146.133 33.13L143.446 37.5292C142.795 38.625 142.267 39.6748 141.858 40.7037C141.486 41.4977 141.299 42.5386 141.299 43.8315C141.299 44.3844 141.384 44.8813 141.551 45.3224C141.683 45.7656 141.969 46.2515 142.41 46.7935C142.85 47.3798 143.6 47.6678 144.668 47.6678C146.266 47.6678 148.095 46.9378 150.177 45.4667L155.839 41.4212L159.098 38.8982C159.076 39.2092 159.066 39.5196 159.066 39.8294C159.066 41.4088 159.53 42.9024 160.443 44.306C161.425 45.6661 162.625 46.3421 164.026 46.3421C165.612 46.3421 167.24 45.5015 168.915 43.8315C169.521 43.322 170.084 42.8354 170.601 42.3494C171.108 41.8744 171.549 41.4436 171.933 41.0686L174.69 38.1482L174.832 38.2916L174.071 39.9952L173.652 41.4212L173.464 42.815V43.8315L173.652 45.523C173.729 45.6877 173.829 45.9214 173.963 46.1958C174.106 46.4743 174.446 46.8708 174.997 47.4122C175.504 47.9652 176.286 48.2419 177.333 48.2419C179.008 48.2419 180.549 47.7123 181.981 46.651C183.414 45.6316 184.791 44.55 186.113 43.4329C187.402 42.2946 188.359 41.4436 188.965 40.8683C189.257 40.5936 189.7 40.172 190.298 39.5975C190.169 39.8049 190.049 40.0401 189.935 40.3042C189.429 41.333 189.175 42.2721 189.175 43.124L189.22 43.7875C189.495 44.9049 189.957 45.7322 190.607 46.2515C191.226 46.7507 191.798 47.0803 192.338 47.2143C192.889 47.3473 193.615 47.4122 194.529 47.4122C196.436 47.4122 198.463 46.595 200.622 44.9698C202.757 43.322 204.674 41.7201 206.382 40.1395C205.966 40.7922 205.667 41.4537 205.459 42.1503C205.225 42.8239 205.105 43.3435 205.105 43.6872V44.5378C205.105 45.5664 205.447 46.4631 206.118 47.2143C206.77 47.9997 207.551 48.3963 208.476 48.3963C209.214 48.3963 210.237 48.1095 211.527 47.5241C212.828 46.9378 214.38 46.0636 216.176 44.9049L221.079 41.5767C221.694 41.1663 222.269 40.7476 222.809 40.3042C223.359 39.8955 224.085 39.3211 225 38.6026L224.592 35.5391ZM211.738 28.4646L210.514 30.9303C209.832 31.9801 208.829 32.8759 207.496 33.5944C206.174 34.3119 205.06 34.6669 204.18 34.6669C203.266 34.5226 202.769 34.1688 202.704 33.582L202.649 32.8207C202.649 31.593 202.967 30.3777 203.618 29.1721C204.334 27.989 205.292 27.0829 206.471 26.4751L209.281 25.1922L210.668 25.0269L211.383 25.1476C211.517 25.3034 211.693 25.5238 211.902 25.8115C212.056 26.0764 212.143 26.3544 212.143 26.6184L211.738 28.4646Z" fill="white"/>
<path d="M77.2313 2.665C76.8291 2.71305 76.5291 2.76519 76.3304 2.81589C76.059 2.8909 75.8162 3.00313 75.5992 3.14905C75.3825 3.29439 75.2081 3.48839 75.0746 3.72925C74.9399 3.97187 74.8738 4.23849 74.8738 4.5321C74.8738 5.02906 75.0511 5.44018 75.4036 5.75957C75.7579 6.08013 76.2636 6.23981 76.9208 6.23981C77.3192 6.23981 77.6932 6.17506 78.0413 6.04408C78.3877 5.91135 78.7502 5.68717 79.1271 5.36837C79.1568 5.65084 79.2256 5.8964 79.3297 6.10532H80.3911C80.2635 5.87706 80.1777 5.63736 80.135 5.38771C80.0895 5.14011 80.0692 4.54586 80.0692 3.60323V2.25417C80.0692 1.80556 80.051 1.49408 80.0198 1.3215C79.958 1.04372 79.8537 0.81547 79.7028 0.632334C79.5505 0.450663 79.3156 0.300626 78.9966 0.179902C78.6773 0.0606443 78.2633 0 77.7508 0C77.2354 0 76.7823 0.070608 76.3912 0.210377C76.0005 0.351319 75.7006 0.552646 75.4948 0.813724C75.2892 1.07187 75.1402 1.41557 75.0502 1.83751L76.0408 1.97406C76.1522 1.54977 76.3195 1.2553 76.5453 1.0874C76.775 0.920671 77.1281 0.838018 77.605 0.838018C78.1154 0.838018 78.5023 0.951137 78.7596 1.18174C78.9528 1.34847 79.0492 1.63973 79.0492 2.05318C79.0492 2.08922 79.0472 2.17801 79.0433 2.31572C78.6561 2.45198 78.0516 2.56713 77.2313 2.665ZM79.0433 3.48018C79.0433 3.92586 78.9898 4.26311 78.8798 4.49166C78.7372 4.78761 78.5123 5.02143 78.2066 5.19167C77.9034 5.36338 77.5541 5.44749 77.1639 5.44749C76.7691 5.44749 76.4683 5.35664 76.2657 5.17937C76.0602 4.99828 75.9567 4.77354 75.9567 4.50308C75.9567 4.32698 76.0043 4.16729 76.0996 4.02312C76.1907 3.87749 76.3266 3.76849 76.5 3.69348C76.6697 3.61876 76.9678 3.55165 77.3848 3.49217C78.1216 3.38639 78.6732 3.25982 79.0433 3.10833V3.48018Z" fill="white"/>
<path d="M106.83 2.665C106.427 2.71305 106.127 2.76519 105.928 2.81589C105.657 2.8909 105.414 3.00313 105.197 3.14905C104.981 3.29439 104.806 3.48839 104.672 3.72925C104.539 3.97187 104.472 4.23849 104.472 4.5321C104.472 5.02906 104.65 5.44018 105.002 5.75957C105.357 6.08013 105.86 6.23981 106.52 6.23981C106.918 6.23981 107.292 6.17506 107.64 6.04408C107.986 5.91135 108.349 5.68717 108.726 5.36837C108.757 5.65084 108.825 5.8964 108.929 6.10532H109.99C109.863 5.87706 109.776 5.63736 109.734 5.38771C109.69 5.14011 109.667 4.54586 109.667 3.60323V2.25417C109.667 1.80556 109.65 1.49408 109.619 1.3215C109.556 1.04372 109.451 0.81547 109.303 0.632334C109.149 0.450663 108.914 0.300626 108.594 0.179902C108.275 0.0606443 107.861 0 107.349 0C106.833 0 106.382 0.070608 105.99 0.210377C105.601 0.351319 105.299 0.552646 105.093 0.813724C104.887 1.07187 104.74 1.41557 104.649 1.83751L105.639 1.97406C105.749 1.54977 105.917 1.2553 106.143 1.0874C106.372 0.920671 106.725 0.838018 107.203 0.838018C107.714 0.838018 108.1 0.951137 108.359 1.18174C108.552 1.34847 108.646 1.63973 108.646 2.05318C108.646 2.08922 108.645 2.17801 108.642 2.31572C108.254 2.45198 107.649 2.56713 106.83 2.665ZM108.642 3.48018C108.642 3.92586 108.587 4.26311 108.479 4.49166C108.335 4.78761 108.111 5.02143 107.805 5.19167C107.502 5.36338 107.152 5.44749 106.761 5.44749C106.367 5.44749 106.068 5.35664 105.862 5.17937C105.659 4.99828 105.556 4.77354 105.556 4.50308C105.556 4.32698 105.603 4.16729 105.697 4.02312C105.79 3.87749 105.926 3.76849 106.099 3.69348C106.269 3.61876 106.565 3.55165 106.983 3.49217C107.72 3.38639 108.273 3.25982 108.642 3.10833V3.48018Z" fill="white"/>
</svg>
