<svg width="25" height="21" viewBox="0 0 25 21" fill="none" xmlns="http://www.w3.org/2000/svg">
<path d="M24.6004 9.52866L15.572 0.500075C15.3143 0.242353 14.9708 0.100891 14.6046 0.100891C14.2379 0.100891 13.8946 0.242557 13.6369 0.500075L12.8172 1.31999C12.5596 1.5773 12.4178 1.921 12.4178 2.28746C12.4178 2.65372 12.5596 3.009 12.8172 3.26631L18.0842 8.54493H1.3506C0.596133 8.54493 0 9.13557 0 9.89024V11.0494C0 11.804 0.596133 12.4542 1.3506 12.4542H18.144L12.8174 17.7623C12.5599 18.0201 12.418 18.3544 12.418 18.7209C12.418 19.0869 12.5599 19.4261 12.8174 19.6837L13.6371 20.5009C13.8948 20.7586 14.2381 20.8991 14.6048 20.8991C14.971 20.8991 15.3145 20.7568 15.5722 20.4991L24.6006 11.4707C24.8589 11.2122 25.001 10.8671 25 10.5002C25.0008 10.1321 24.8589 9.78679 24.6004 9.52866Z" fill="#C9D3E9"/>
</svg>
