<?xml version="1.0" encoding="UTF-8"?>
<!DOCTYPE svg PUBLIC "-//W3C//DTD SVG 1.1//EN" "http://www.w3.org/Graphics/SVG/1.1/DTD/svg11.dtd">
<!-- Creator: CorelDRAW 2018 (64-Bit) -->
<svg xmlns="http://www.w3.org/2000/svg" xml:space="preserve" width="148.034mm" height="39.6127mm" version="1.1" style="shape-rendering:geometricPrecision; text-rendering:geometricPrecision; image-rendering:optimizeQuality; fill-rule:evenodd; clip-rule:evenodd"
viewBox="0 0 14657.51 3922.23"
 xmlns:xlink="http://www.w3.org/1999/xlink">
 <defs>
  <style type="text/css">
   <![CDATA[
    .fil0 {fill:#264796}
   ]]>
  </style>
 </defs>
 <g id="Layer_x0020_1">
  <metadata id="CorelCorpID_0Corel-Layer"/>
  <g id="_2369194540448">
   <polygon class="fil0" points="9505.77,63.57 9681.48,63.57 9681.48,399.14 9747.6,399.14 9747.6,8.88 9439.51,8.88 9439.51,399.14 9505.77,399.14 "/>
   <polygon class="fil0" points="8758.66,69.85 8867.74,399.14 8927.01,399.14 9042.4,84.9 9042.4,399.14 9108.48,399.14 9108.48,8.88 9013.34,8.88 8899.42,321.26 8796.76,8.88 8693.86,8.88 8693.86,399.14 8758.66,399.14 "/>
   <polygon class="fil0" points="11625.02,103.32 11625.02,399.14 11691.15,399.14 11691.15,8.88 11619.95,8.88 11436.54,306.58 11436.54,8.88 11370.42,8.88 11370.42,399.14 11441.71,399.14 "/>
   <path class="fil0" d="M12099.8 176.24c-16.8,-10.93 -25.19,-27.97 -25.19,-51.29 0,-16.31 5.72,-30.74 17.08,-42.87 11.39,-12.35 36.88,-18.51 76.25,-18.51l94 0 0 129.1 -73.07 0c-42.69,0 -72.31,-5.53 -89.07,-16.43zm-46.22 117.79l-71.18 105.11 81.94 0 57.64 -85.3c21.9,-32.49 38.42,-51.82 49.77,-57.79 11.49,-6.04 28.77,-9.04 52.11,-9.04l38.08 0 0 152.14 65.83 0 0 -390.26 -180.9 0c-45.2,0 -79.79,10.55 -103.57,31.65 -24.03,21.03 -35.91,48.39 -35.91,82.26 0.01,28.63 9.16,54.05 27.32,76.02 18.38,22.08 46.28,35.61 84.04,40.88 -21.61,4.12 -43.32,22.2 -65.18,54.32z"/>
   <polygon class="fil0" points="10791.56,226.04 10975.04,226.04 10975.04,399.14 11041.03,399.14 11041.03,8.88 10975.04,8.88 10975.04,171.34 10791.56,171.34 10791.56,8.88 10725.3,8.88 10725.3,399.14 10791.56,399.14 "/>
   <path class="fil0" d="M5149.14 227.53c0,29.13 -3.49,51.18 -10.65,66.1 -9.25,19.35 -23.92,34.65 -43.79,45.76 -19.77,11.2 -42.55,16.73 -67.9,16.73 -25.81,0 -45.31,-5.92 -58.55,-17.58 -13.34,-11.77 -20.12,-26.51 -20.12,-44.18 0,-11.5 3.14,-21.93 9.29,-31.36 6.01,-9.53 14.81,-16.65 26.1,-21.58 11.07,-4.86 30.49,-9.23 57.67,-13.14 47.85,-6.92 83.97,-15.2 107.97,-25.07l0 24.31zm-117.99 -53.29c-26.2,3.14 -45.72,6.52 -58.76,9.86 -17.58,4.89 -33.43,12.23 -47.62,21.74 -14.04,9.54 -25.43,22.19 -34.09,37.98 -8.8,15.85 -13.1,33.26 -13.1,52.45 0.01,32.48 11.6,59.34 34.52,80.25 23.12,20.92 55.99,31.37 98.82,31.37 25.95,-0.01 50.3,-4.23 73,-12.76 22.57,-8.68 46.18,-23.33 70.74,-44.15 1.92,18.45 6.43,34.5 13.17,48.16l69.09 0c-8.25,-14.94 -13.83,-30.6 -16.63,-46.93 -2.93,-16.19 -4.22,-55.06 -4.22,-116.67l0 -88.16c0,-29.35 -1.26,-49.68 -3.29,-60.97 -4.01,-18.15 -10.86,-33.08 -20.6,-45.04 -9.96,-11.89 -25.22,-21.67 -46.04,-29.56 -20.81,-7.81 -47.74,-11.8 -81.18,-11.8 -33.57,0 -63.08,4.63 -88.54,13.78 -25.44,9.19 -44.92,22.36 -58.37,39.4 -13.38,16.92 -23.06,39.36 -28.99,66.97l64.59 8.89c7.16,-27.72 18.09,-46.97 32.86,-57.94 14.88,-10.91 37.86,-16.29 68.98,-16.29 33.22,0 58.44,7.39 75.24,22.45 12.55,10.9 18.83,29.97 18.83,56.95 0,2.37 -0.14,8.17 -0.43,17.21 -25.18,8.88 -64.62,16.39 -117.99,22.81z"/>
   <path class="fil0" d="M10325.76 227.53c0,29.13 -3.53,51.18 -10.62,66.1 -9.36,19.35 -23.92,34.65 -43.83,45.76 -19.74,11.2 -42.48,16.73 -67.97,16.73 -25.63,0 -45.31,-5.92 -58.62,-17.58 -13.24,-11.77 -20.05,-26.51 -20.05,-44.18 0,-11.5 3.22,-21.93 9.26,-31.36 6.05,-9.53 14.88,-16.65 26.09,-21.58 11.18,-4.86 30.5,-9.23 57.77,-13.14 47.89,-6.92 83.87,-15.2 107.98,-25.07l0 24.31zm-118.06 -53.29c-26.2,3.14 -45.76,6.52 -58.69,9.86 -17.74,4.89 -33.43,12.23 -47.68,21.74 -13.97,9.54 -25.51,22.19 -34.06,37.98 -8.83,15.85 -13.06,33.26 -13.06,52.45 0,32.48 11.53,59.34 34.47,80.25 23.06,20.92 55.96,31.37 98.83,31.37 26.06,-0.01 50.37,-4.23 73.03,-12.76 22.57,-8.68 46.11,-23.33 70.74,-44.15 1.89,18.45 6.39,34.5 13.13,48.16l69.17 0c-8.32,-14.94 -13.94,-30.6 -16.7,-46.93 -2.86,-16.19 -4.23,-55.06 -4.23,-116.67l0 -88.16c0,-29.35 -1.08,-49.68 -3.32,-60.97 -3.87,-18.15 -10.68,-33.08 -20.58,-45.04 -9.84,-11.89 -25.15,-21.67 -45.96,-29.56 -20.85,-7.81 -47.75,-11.8 -81.21,-11.8 -33.54,0 -63.09,4.63 -88.55,13.78 -25.5,9.19 -45.03,22.36 -58.51,39.4 -13.38,16.92 -23.06,39.36 -28.89,66.97l64.56 8.89c7.09,-27.72 18.09,-46.97 32.93,-57.94 14.85,-10.91 37.79,-16.29 68.92,-16.29 33.18,0 58.47,7.39 75.37,22.45 12.37,10.9 18.76,29.97 18.76,56.95 0,2.37 -0.11,8.17 -0.42,17.21 -25.15,8.88 -64.56,16.39 -118.06,22.81z"/>
   <polygon class="fil0" points="6970.16,961.91 7046.66,887.24 7010.68,883.21 "/>
   <polygon class="fil0" points="7008.09,804.65 7012.32,806.52 7016.02,805.88 7006.67,801.68 6993.5,809.77 7009.6,806.99 "/>
   <polygon class="fil0" points="6872.85,803.09 6786.5,841.85 6807.91,841.78 6854.16,833.8 "/>
   <polygon class="fil0" points="6859.89,962.11 6860.34,962.83 6860.41,962.9 6860.55,962.76 "/>
   <path class="fil0" d="M7093.71 802.43l34.23 38.36 -32.38 0.12 -1.85 -38.48zm63.72 38.36l-26.06 0 -33.77 -37.91 59.83 37.91zm-295.3 25.67l70.63 7.94 6.88 -30.62 0.52 0 7.2 32.26 63.32 7.16 20.48 -39.69 60.36 -0.17 -44.85 43.88 3.29 0.36 42.99 -42.07 -26.59 43.93 20.41 2.3 43.87 -48.61 27.1 0 -56.23 50.26 5.93 0.68 62.39 361.67 41.01 -364.77 361.8 -62.36 -364.81 -41.03 -62.35 -361.72 -40.97 364.75 -20.67 3.54 9.81 6.24 0 0.03 -16.46 -5.12 -61.16 10.55 78.03 35.03 -4.44 0 -77.3 -34.39 -2.72 0.47 21.45 34.11 -89.17 0.28 51.63 -31.61 -83.27 14.36 27.69 17.25 -85.47 0.25 5.1 -8.42 -3.39 0.59 -4.86 7.82 -41.39 0.16 -14.26 2.46 57.15 -0.15 11.32 22.38z"/>
   <polygon class="fil0" points="6876.06,802.83 6857.55,833.21 6910.23,824.13 "/>
   <polygon class="fil0" points="6852.59,780.2 6875.02,802.12 6941.28,780.67 7006.67,801.68 7028.71,780.2 "/>
   <polygon class="fil0" points="6862.13,866.47 6803.41,859.84 6912.29,965.54 "/>
   <polygon class="fil0" points="7021.26,964.24 7066.35,889.46 7049.95,887.6 6969.57,966.13 6942.92,1034.92 7101.5,893.41 7086.76,891.75 "/>
   <polygon class="fil0" points="6912.29,965.54 6933.62,1027.53 6860.41,962.9 6858.52,964.57 6863.77,969.21 6891.96,994.04 6935.2,1032.08 6939.63,1035.95 6967.09,965.15 6947.36,876.05 6932.75,874.41 "/>
   <polygon class="fil0" points="7044.07,774.15 7028.71,780.2 7077.18,795.32 7083.83,794.18 7049.59,772.42 7049.59,772.15 7049.17,772.15 6832.68,772.15 6722.57,842.06 6748.7,841.99 6786.88,801.77 6852.59,780.2 6837.64,774.15 "/>
   <polygon class="fil0" points="6858.38,960.66 6833.27,936.79 6758.8,854.83 6742.76,853.02 6755.27,850.86 6749.34,844.38 6722.09,844.45 6858.52,964.57 6860.34,962.83 "/>
   <polygon class="fil0" points="6859.89,962.11 6795.76,858.97 6762.61,855.26 6858.38,960.66 "/>
   <path class="fil0" d="M7077.05 227.53c0,29.13 -3.59,51.18 -10.55,66.1 -9.37,19.35 -24,34.65 -43.87,45.76 -19.84,11.2 -42.55,16.73 -68.01,16.73 -25.7,0 -45.2,-5.92 -58.58,-17.58 -13.31,-11.77 -19.98,-26.51 -19.98,-44.18 0,-11.5 3.04,-21.93 9.26,-31.36 6.01,-9.53 14.88,-16.65 26.13,-21.58 11.14,-4.86 30.43,-9.23 57.64,-13.14 47.96,-6.92 83.9,-15.2 107.97,-25.07l0 24.31zm-117.93 -53.29c-26.26,3.14 -45.75,6.52 -58.78,9.86 -17.67,4.89 -33.5,12.23 -47.61,21.74 -14.11,9.54 -25.44,22.19 -34.17,37.98 -8.73,15.85 -12.99,33.26 -12.99,52.45 0,32.48 11.5,59.34 34.55,80.25 23.02,20.92 55.78,31.37 98.82,31.37 25.85,-0.01 50.27,-4.23 72.93,-12.76 22.57,-8.68 46.11,-23.33 70.74,-44.15 1.96,18.45 6.39,34.5 13.24,48.16l69.02 0c-8.28,-14.94 -13.83,-30.6 -16.62,-46.93 -2.9,-16.19 -4.37,-55.06 -4.37,-116.67l0 -88.16c0,-29.35 -1.05,-49.68 -3.22,-60.97 -3.98,-18.15 -10.79,-33.08 -20.54,-45.04 -9.88,-11.89 -25.33,-21.67 -46.11,-29.56 -20.81,-7.81 -47.74,-11.8 -81.1,-11.8 -33.64,0 -63.01,4.63 -88.48,13.78 -25.5,9.19 -45.17,22.36 -58.51,39.4 -13.38,16.92 -22.99,39.36 -28.92,66.97l64.59 8.89c7.16,-27.72 18.05,-46.97 32.79,-57.94 14.88,-10.91 37.93,-16.29 69.02,-16.29 33.22,0 58.48,7.39 75.24,22.45 12.48,10.9 18.75,29.97 18.75,56.95 0.01,2.37 -0.07,8.17 -0.35,17.21 -25.22,8.88 -64.59,16.39 -117.93,22.81z"/>
   <path class="fil0" d="M7541.93 218.77c14.95,0 27.94,3.75 38.64,11.53 10.79,7.64 23.41,23.71 37.83,47.91l70.7 120.93 72.73 0 -72.38 -120.93c-27.53,-45.25 -55.47,-71.77 -83.73,-79.39 17.26,-8.04 30.11,-16.94 38.39,-26.83 8.42,-9.86 17.57,-27.38 27.73,-52.82 10.45,-26.72 18.31,-42.79 23.51,-48.16 4.96,-5.19 16,-7.79 33.4,-7.79l18.41 0.36 0 -54.69 -13.34 0c-23.23,0 -40.14,1.65 -50.66,5.17 -10.52,3.38 -19.84,10.03 -27.91,19.78 -8.03,9.77 -18.61,30.14 -31.65,60.99 -16.45,38.99 -28.92,62.46 -37.23,70.62 -8.56,8.05 -23.3,12.02 -44.44,12.02l0 -168.58 -66.01 0 0 390.26 66.01 0 0 -180.36z"/>
   <polygon class="fil0" points="6432.48,103.32 6432.48,399.14 6498.64,399.14 6498.64,8.88 6427.42,8.88 6244,306.58 6244,8.88 6177.91,8.88 6177.91,399.14 6249.07,399.14 "/>
   <path class="fil0" d="M5614.84 344.66l0 -117.13 79.99 0c28.64,0 49.53,1.38 62.63,4.26 12.82,2.81 23.44,9.55 31.37,20.22 8.24,10.67 12.29,22.22 12.29,34.73 -0.83,21.19 -8.14,36.25 -22.11,44.91 -13.9,8.78 -39.68,13.01 -77.23,13.01l-86.93 0zm0 -281.09l72.76 0c35.28,0 60.18,4.04 74.72,12.19 14.57,8.02 21.72,22.45 21.72,43.02 0,12.45 -4.09,23.19 -12.4,32.1 -8.39,8.93 -17.71,14.95 -28.37,17.85 -10.44,2.95 -29.75,4.35 -58.05,4.35l-70.38 0 0 -109.51zm214.57 308.71c23.96,-17.79 37.23,-45.23 39.54,-82.28 0.01,-23.11 -5.9,-42.91 -18.13,-59.7 -12.19,-16.83 -27.35,-28.26 -45.82,-34.36 15.48,-9.32 27.14,-20.98 34.86,-34.76 7.72,-13.8 11.66,-30.12 11.66,-48.7 0,-23.28 -6.67,-43.27 -19.77,-59.95 -13.09,-16.67 -28.88,-28.09 -47.01,-34.31 -18.3,-6.2 -46.18,-9.34 -83.63,-9.34l-152.57 0 0 390.26 176.19 0c45.7,0 80.55,-8.92 104.69,-26.86z"/>
   <polygon class="fil0" points="6803.41,859.84 6788.25,845.18 6787.3,845.35 6795.76,858.97 "/>
   <path class="fil0" d="M7901.19 1398.09l29.45 0 47.36 -6.45c43.77,-26.57 81.14,-44.46 112.05,-53.11 30.88,-9.33 73.14,-21.54 126.2,-37.33 50.93,-15.05 129.91,-28.68 236.82,-39.45 63.96,-13.65 104.16,-21.57 119.85,-23.69 15.09,0 78.97,-6.47 192.4,-19.38l285.66 -10.01 442.74 -16.57c41.7,0 109.82,-0.69 202.48,-2.84 93.2,-2.15 164.98,-3.58 215.98,-3.58l305.75 -10.1 233.34 -20.05c42.26,-6.47 63.07,-18.66 63.07,-37.27 -15.05,-32.36 -54.46,-72.54 -116.91,-119.91l-192.41 -138.49c-48.82,-31.64 -96.15,-47.4 -142.93,-47.4 -22.18,-6.45 -48.03,-9.31 -76.71,-9.31l-59.59 0 -475.12 16.51c-157.89,20.09 -259.77,32.99 -306.38,40.2 -46.72,6.47 -150.72,23.62 -312.2,52.4 -161.51,28.7 -327.33,71.02 -495.97,126.27 -170.07,58.16 -326.59,136.36 -468.62,233.25l-12.99 49.51 -7.1 33.75c7.1,28.71 25.05,43.05 53.76,43.04z"/>
   <polygon class="fil0" points="6787.79,804.58 6752.2,841.95 6785.45,841.85 "/>
   <polygon class="fil0" points="6786.61,844.28 6752.72,844.38 6758.17,850.35 6787.3,845.35 "/>
   <polygon class="fil0" points="6787.3,844.28 6788.25,845.18 6793.66,844.24 "/>
   <polygon class="fil0" points="6758.8,854.83 6762.61,855.26 6758.17,850.35 6755.27,850.86 "/>
   <path class="fil0" d="M8119.71 91.94c21.94,-24.69 49.46,-37.13 82.44,-37.13 32.59,0 59.83,12.44 81.77,37.25 21.94,24.81 32.9,61.44 32.9,109.74 0.01,51.22 -10.96,89.32 -32.72,114.32 -21.76,24.92 -49.15,37.48 -81.94,37.48 -32.98,0 -60.5,-12.44 -82.44,-37.37 -21.72,-24.85 -32.63,-62.22 -32.63,-112.28 0,-49.97 10.9,-87.31 32.63,-112.01zm82.44 315.94c34.09,0 65.35,-7.89 94.27,-23.82 28.78,-15.89 50.62,-38.24 65.81,-67.08 14.98,-28.73 22.46,-68.22 22.46,-118.53 0,-61.98 -16.84,-110.54 -51.03,-145.62 -33.95,-35.28 -77.93,-52.82 -131.51,-52.82 -48.31,0 -89.18,14.55 -122.75,43.43 -40.24,34.7 -60.29,88.29 -60.29,160.52 0,65.97 16.84,116.42 50.55,151.39 33.77,35.09 77.89,52.55 132.49,52.54z"/>
   <polygon class="fil0" points="12190.06,3495.46 12266.03,3495.17 12222.33,3467.88 12203.29,3473.64 "/>
   <polygon class="fil0" points="12348.67,3494.97 12328.45,3462.55 12400.96,3494.83 12404.73,3494.73 12327.15,3459.9 12269.52,3495.17 "/>
   <polygon class="fil0" points="12197.11,3603.11 12197.25,3602.97 12196.73,3602.52 12197.11,3603.08 "/>
   <polygon class="fil0" points="12195.5,3601.37 12176.4,3583.31 12176.46,3588.02 12195.44,3604.68 12197.11,3603.08 "/>
   <polygon class="fil0" points="12197.11,3603.11 12195.44,3604.68 12200.12,3608.84 12225.27,3630.91 12263.45,3664.7 12267.53,3668.11 12291.92,3605.14 12268.05,3497.34 12267.53,3497.34 12243.26,3605.56 12262.22,3660.65 "/>
   <polygon class="fil0" points="2151.54,3647.26 2153.38,3645.45 2151.74,3643.67 2126.26,3619.46 2042.24,3527.11 2015.03,3527.21 "/>
   <polygon class="fil0" points="12196.73,3602.52 12176.33,3569.72 12176.4,3580.34 12195.5,3601.37 "/>
   <polygon class="fil0" points="2169.03,3485.47 2145.4,3524.31 2231.02,3524.17 "/>
   <polygon class="fil0" points="2156.73,3651.85 2185.03,3676.78 2228.22,3714.79 2232.65,3718.59 2260.15,3647.83 2233.19,3526.47 2232.65,3526.47 2205.29,3648.21 2226.62,3710.2 2153.38,3645.48 2151.54,3647.26 "/>
   <polygon class="fil0" points="2153.38,3645.48 2153.52,3645.38 2153,3644.88 2153.38,3645.45 "/>
   <polygon class="fil0" points="2080.32,3527.04 2205.29,3648.21 2143.69,3526.79 "/>
   <polygon class="fil0" points="12360.4,3435.47 12346.68,3440.79 12404.46,3458.87 12404.52,3458.74 12365.3,3433.86 12365.3,3433.7 12364.85,3433.7 12336.07,3433.7 12330.13,3435.47 "/>
   <polygon class="fil0" points="12406.17,3494.73 12434.95,3494.73 12404.52,3460.64 "/>
   <polygon class="fil0" points="12294.82,3602.28 12402.53,3496.93 12348.96,3497.03 "/>
   <polygon class="fil0" points="12270.39,3667.21 12461.43,3496.72 12437.39,3496.72 12340.16,3604.37 12403.83,3498.88 12294.14,3606.08 "/>
   <polygon class="fil0" points="12461.18,3494.73 12407.95,3460.98 12437.88,3494.73 "/>
   <path class="fil0" d="M13793.52 1810.06l-79.68 160.04c-44.53,68.18 -109.82,126.33 -196.65,172.98 -86.1,46.63 -158.59,69.6 -216.01,69.6 -59.55,-9.36 -91.84,-32.32 -96.16,-70.33l-3.49 -49.5c0,-79.69 20.66,-158.64 63.11,-236.89 46.6,-76.78 109.04,-135.62 185.75,-175.09l183.04 -83.22 90.47 -10.81 46.6 7.9c8.7,10.08 20.15,24.41 33.81,43.1 10.06,17.21 15.78,35.17 15.78,52.36l-26.58 119.87zm837.52 459.28c-226,157.19 -372.5,249.08 -437.82,275.62l-243.18 70.34c-35.9,0 -61.06,-11.47 -76.78,-33.64 -15.16,-22.31 -23.02,-44.62 -23.02,-66.14 0.01,-48.78 6.5,-90.43 20.05,-123.38l52.4 -106.99 76.85 -112.69 113.45 -133.46 178.67 -205.97c38,-55.28 56.69,-97.61 56.69,-126.32l-29.41 -86.12 -50.34 -86.13 -45.86 -76.8c-15.82,-20.13 -24.42,-32.27 -26.55,-36.61 -5.06,-2.11 -10.83,-5.01 -17.29,-9.31 -43.76,12.92 -80.34,37.35 -109.05,72.48 -20.12,-19.38 -42.37,-38.74 -67.45,-56.69 -26.55,-15.79 -53.09,-26.56 -79.72,-32.31 -59.48,-26.54 -130.63,-40.18 -212.41,-40.18l-169.4 12.93c-77.45,10.75 -213.15,90.39 -405.41,239 -195.99,148.53 -301.41,311.45 -316.54,489.45 -4.3,6.44 -6.53,22.22 -6.53,45.91 0,77.52 32.41,143.55 96.99,196.65 70.94,53.14 147.83,79.69 232.43,79.69l122.82 -20.13 65.91 -22.96 50.96 -26.54c-102.48,97.59 -197.95,180.83 -286.29,249.8 -108.39,74.63 -223.9,111.88 -345.85,111.88 -24.41,-5.73 -36.67,-17.19 -36.67,-32.27l-2.92 -93.33c-7.1,-51.68 -22.96,-88.95 -46.61,-112.63 -26.58,-18.69 -54.57,-27.29 -83.24,-27.29l-93.33 16.51c-8.03,1.6 -15.79,4.16 -23.34,7.61 25.3,-24.12 53.1,-50.86 83.66,-80.13l-27.31 -187.3 -205.94 160.04 -215.28 153.57c-97.67,61.78 -178.05,92.54 -239.84,92.54 -73.06,0 -109.75,-30.76 -109.75,-92.54 6.48,-50.85 21.52,-103.29 46.71,-156.43 22.18,-51.67 74.65,-129.93 156.34,-236.8 81.88,-103.36 152.89,-182.37 212.49,-235.44 33.08,-35.88 60.29,-63.16 83.27,-83.26 22.32,-17.24 40.27,-32.99 53.16,-45.9 11.4,-13.62 23.61,-30.14 37.31,-50.23 9.99,-17.94 16.45,-34.45 19.32,-49.55 8.59,-15.79 12.99,-38.03 12.99,-67.44 0.01,-119.13 -13.62,-186.62 -40.24,-203.1 -24.41,-21.54 -45.23,-32.32 -63.19,-32.32 -37.23,0 -112.65,47.38 -225.99,142.82 -66.02,46.64 -114.89,83.98 -145.66,112.69 -33.74,31.56 -77.62,72.47 -130.71,122.72 -52.32,51.67 -89.71,88.25 -112.62,110.52l-425.58 386.13c-106.25,88.26 -210.35,160.04 -312.21,215.3 -104.05,58.12 -172.97,86.85 -205.98,86.85 -22.28,-2.93 -33.77,-23.67 -33.77,-63.89 0,-76.79 20.85,-145.69 63.22,-205.3 42.34,-60.22 109.86,-123.4 203.09,-190.12 91.2,-64.61 142.13,-104.11 153.58,-119.86l132.08 -136.37 129.21 -146.41c35.76,-43.81 53.78,-80.4 53.78,-109.09 0,-46.64 -10.06,-71.75 -29.38,-76.8 -24.41,-13.64 -63.22,-20.09 -116.99,-20.09l-116.3 7.2 -106.16 12.89c-35.9,7.17 -96.96,39.49 -183.07,96.92 -88.33,57.36 -192.4,184.42 -312.27,382.52 -52.25,84.19 -93.34,168.14 -123.13,251.68l-416.6 277.22c-17.19,10.07 -33.01,19.38 -45.87,25.86 -13.68,9.28 -29.52,17.26 -47.43,23.63 -20.12,8.6 -34.41,14.44 -43.04,16.55 -8.58,2.12 -33.73,7.84 -76.11,16.58 -31.5,0 -55.95,-8.73 -73.28,-27.28 -22.87,-30.91 -33.64,-58.2 -33.64,-82.59l27.28 -89.72 45.86 -99.74 80.48 -103.39 111.92 -125.58 180.18 -213.85c37.99,-50.24 56.62,-91.88 56.62,-125.58l-29.38 -86.13 -47.33 -86.87 -49.64 -76.08c-9.29,-15.79 -15.68,-24.36 -19.98,-26.56l-19.46 -20.07c-40.13,13.64 -72.38,28.71 -96.87,46.63l-109.71 76.08 -954.61 755.03 -9.19 -10.74 258.97 -378.22c94.74,-142.13 142.8,-250.55 142.8,-325.83 0,-60.31 -15.82,-109.12 -46.73,-147.16 -33.64,-35.17 -76.71,-52.43 -129.08,-52.43 -98.32,-0.01 -230.36,65.35 -396.18,195.27 -167.94,131.33 -299.24,238.95 -391.84,322.92 -93.3,83.99 -180.14,167.25 -259.77,249.05l-262.78 265.56 -33.04 24.43 -16.49 -13.65 -13.65 -25.85c0,-40.18 14.46,-78.25 43.13,-114.08l82.48 -109.12 220.44 -246.2 142.8 -176.54c31.47,-48.73 47.33,-88.96 47.33,-119.8 -7.16,-43.82 -22.91,-66.05 -47.33,-66.05 -20.05,-9.34 -35.87,-15.78 -49.47,-20.1 -15.81,-2.13 -47.43,-5.01 -96.93,-10.04 -72.59,0 -147.97,26.56 -226.21,79.68 -77.47,55.25 -179.4,166.5 -305.78,333 -54.56,71.66 -97.46,146.07 -128.79,223.23l-903.79 800.85 -7.16 -6.48 638.59 -948c58.12,-84.67 89,-134.19 93.36,-149.25l49.54 -86.15c13.52,-27.3 22.18,-48.05 27.21,-64.57 2.13,-12.95 3.63,-38.75 3.63,-75.35 0,-47.37 -11.53,-98.33 -33.7,-153.61 -17.99,-44.48 -40.24,-66.03 -66.8,-66.03 -4.36,0 -8.58,0.75 -13.55,2.86 -41.81,11.55 -140.81,88.98 -295.8,233.27l-454.89 432.03c-78.2,71.06 -147.06,132.78 -207.42,186.6 -59.55,53.18 -119.1,102.64 -178.63,149.3 -62.42,46.64 -157.19,78.9 -283.49,96.16 0,-91.14 28.01,-173.69 83.34,-249.08 64.52,-50.91 128.37,-106.91 192.3,-167.2 62.42,-57.38 151.41,-145.66 266.23,-265.51 114.12,-119.12 170.7,-216.76 170.7,-292.84 -7.15,-39.49 -32.93,-82.53 -76.78,-129.19 -46.59,-46.63 -81.74,-70.32 -106.15,-70.32 -91.19,0 -254.74,124.15 -489.47,373.23 -172.24,182.37 -281.51,356.17 -327.33,521.79 -258.7,205.24 -435.13,333.63 -530.13,385.34 -97.56,55.19 -175.07,83.23 -232.5,83.23 -77.44,0 -129.91,-13.57 -156.41,-40.12l-63.08 -66.17 -59.6 -83.16 -117.05 -126.28c-53.06,-48.83 -108.32,-79.7 -165.71,-93.33 63.81,-88.31 179.36,-185.87 345.14,-292.16 166.47,-106.87 290.72,-159.98 372.52,-159.98 37.97,13.63 56.59,26.54 56.59,40.18 4.37,17.26 20.89,26.54 50.3,26.54 66.02,0 137.77,-24.37 215.94,-73.15 75.38,-48.82 113.42,-87.6 113.42,-116.32 0,-76.04 -20.12,-147.11 -60.29,-213.87 -41.6,-65.28 -96.23,-98.29 -162.88,-98.29 -28.71,4.3 -55.99,9.31 -82.47,15.79 -26.59,8.59 -58.2,21.56 -94.07,36.6 -39.4,22.24 -85.4,48.83 -136.29,79.67 -50.26,30.89 -91.91,56.7 -123.44,76.79l-288.49 200.26 -335.93 269.08c-55.22,45.98 -119.81,100.48 -193.06,162.94 -73.17,61.71 -134.9,115.57 -185.86,162.88l7.23 -116.94c37.28,-41.64 86.1,-90.42 146.39,-145.7 57.39,-53.81 116.99,-105.53 179.43,-157.16l249.02 -218.2 95.43 -107.64c35.9,-43.81 53.82,-80.4 53.82,-109.09 0,-46.64 -10.02,-71.75 -29.45,-76.8 -24.38,-13.64 -63.12,-20.09 -116.24,-20.09l-117.02 7.2 -106.15 12.89c-28.71,7.17 -85.41,37.34 -169.45,90.47 -86.8,53.07 -192.29,177.25 -316.39,371.71 -51.38,81.62 -92.08,158.36 -122.09,230.19 -3.21,1.02 -6.45,2.7 -9.21,5.67 -94.91,101.78 -569.8,449.17 -661.57,362.62 -95.3,-89.85 438.06,-878.15 508.33,-956.45 94.91,-105.78 347.59,-567.83 -86.64,-769.24 -165.65,97.32 -592.65,536.14 -660.06,556.22 -965.9,579.58 -1248.89,299.6 -953.93,-166.9 228.21,-360.98 913.4,-764.03 1481.09,-648.86 11.43,-3.53 -20.51,35.22 -26.2,84.18 -10.64,90.24 19.27,202.69 232.16,59.31 154.12,-103.79 495.57,-244.85 371.78,-452.01 -13.38,-22.54 -123.24,-106.81 -249.53,-160.18 -98.16,-41.48 -214.08,-56.81 -253.75,-58.66 -413.05,-18.77 -583.4,1.37 -1161.18,256.2 -414.05,182.66 -1374.39,1036.99 -694.99,1656.02 278.96,254.2 917.19,-100.07 1173.71,-276.23 20.47,-14 -30.29,49.28 -61.61,80.63 -281.62,228.48 -663.61,469.51 -971.21,602.29 -349.47,150.84 -314.17,-87.86 -517.54,-75.78 -238.64,-68.83 -972.24,476.38 -828.57,661.34 123.48,159.09 371.34,201.66 578.91,133.99 643.99,-210.23 1369.68,-708.9 1975.71,-1283.27 -133.31,316.96 -522.15,651.32 -419.71,1076.21 127.61,529.01 1097.16,-155.96 1179.54,-300.99 6.75,50.88 17.02,113.66 30.8,188.29 24.43,146.38 73.95,219.61 149.33,219.61 39.44,-4.37 65.98,-10.1 79.64,-16.55 20.09,-20.06 32.28,-35.17 36.58,-46.6 7.19,-6.52 17.25,-21.56 30.91,-43.15 10.02,-22.24 17.91,-38.07 22.91,-45.91l86.07 -130.58 72.58 -83.23 53.76 -53.21c142.18,216.81 254.08,360.35 336.63,429.97 94.73,68.12 188.03,102.68 278.46,102.68 146.39,0 303.51,-71.15 471.42,-213.2l461.4 -396.92c9.15,122.63 48.02,225.17 117.01,307.2 79.72,95.45 152.86,143.44 219.6,143.44 17.19,-4.98 48.8,-20.7 93.34,-47.24 42.34,-25.89 93.86,-62.53 155.65,-109.88l473.58 -371.71 6.43 9.31 -575.43 971.77 -76.82 125.55c-26.51,51.73 -40.24,96.83 -40.24,137.07 0,55.33 12.3,116.28 37.38,183.03 24.42,66.02 53.82,99.8 88.96,99.8 38.04,-5.1 68.88,-22.91 93.99,-53.82l142.77 -162.95 1144.59 -1262.23c-0.98,17.33 -1.44,34.69 -1.44,52.22 0,109.12 22.91,217.4 69.65,325.81 45.86,110.51 112.65,166.52 199.45,166.52 42.37,-7.2 73.21,-17.19 92.64,-30.87l130.64 -138.52 249.05 -290.7 275 -294.92 177.13 -180.12c50.96,-43.79 83.2,-66.05 96.2,-66.05 20.15,8.61 29.48,19.4 29.48,32.32l-16.56 30.82 -109.12 179.4 -109.75 166.57 -106.93 208.86c-39.5,80.23 -58.92,153.5 -58.92,219.51 0,51.72 17.33,93.33 52.43,126.35 33.74,33.02 78.24,49.5 133.47,49.5 66.76,0 122.67,-18.59 169.4,-55.97 45.97,-35.1 86.91,-69.56 122.75,-102.54 35.87,-33.77 72.45,-69.63 109.75,-107.66l685.41 -627.31 5.72 6.48 -175.07 285.62c-42.38,71.08 -76.75,139.24 -103.43,206.03 -24.28,51.58 -36.51,119.12 -36.51,203.07 0.01,35.88 5.59,68.15 16.46,96.85 8.59,28.75 27.25,60.27 55.92,95.44 28.82,38.06 77.62,56.77 147.13,56.77 104.09,-0.01 223.28,-47.35 358.98,-142.87l368.76 -262.66 212.35 -163.73c-1.37,20.12 -2,40.25 -2,60.45 0.01,102.53 30.14,199.45 89.7,290.56 63.92,88.34 142.17,132.14 233.41,132.14 103.29,0 209.48,-54.58 318.6,-162.95 39.55,-32.98 76.14,-64.65 109.72,-96.16 33.12,-30.9 61.82,-58.84 86.87,-83.23l179.54 -189.52 9.26 9.32 -49.5 110.55 -27.28 92.58 -12.22 90.47 0 66 12.22 109.77c4.96,10.74 11.46,25.89 20.19,43.73 9.22,18.04 31.51,43.83 67.41,79 33.02,35.88 83.94,53.82 152.09,53.82 109.12,0 209.58,-34.42 302.89,-103.32 93.33,-66.11 183.03,-136.38 269.13,-208.9 83.98,-73.88 146.39,-129.11 185.9,-166.46 18.86,-17.84 47.78,-45.23 86.74,-82.48 -8.39,13.48 -16.25,28.71 -23.61,45.87 -33,66.77 -49.54,127.68 -49.54,183.01l2.97 43.12c17.92,72.49 47.92,126.21 90.3,159.95 40.24,32.37 77.65,53.82 112.75,62.53 35.91,8.59 83.24,12.86 142.76,12.86 124.28,0 256.29,-53.12 396.98,-158.59 139.17,-106.9 263.97,-210.97 375.29,-313.62 -27.24,42.37 -46.64,85.35 -60.26,130.58 -15.15,43.72 -23.01,77.5 -23.01,99.81l0 55.2c0,66.75 22.32,124.95 66.08,173.76 42.34,50.96 93.23,76.75 153.55,76.75 48.1,0 114.75,-18.65 198.75,-56.69 84.71,-38 185.83,-94.81 302.85,-170.05l319.44 -216.03c40.14,-26.67 77.51,-53.82 112.68,-82.59 35.88,-26.54 83.21,-63.81 142.69,-110.52l-26.47 -198.83z"/>
   <polygon class="fil0" points="12175.59,3495.49 12187.3,3495.46 12199.97,3474.63 12175.49,3482 "/>
   <polygon class="fil0" points="12330.13,3435.47 12176.81,3435.47 12190.13,3440.79 12312.45,3440.79 "/>
   <path class="fil0" d="M12132.45 3462.45l-1.96 33.11 -29.55 0.07 31.51 -33.18zm-58.37 35.46l24.25 0 74.61 82.04 3.46 3.36 0 -2.97 -75.03 -82.5 30.08 -0.15 44.88 72.03 -0.32 -29.45 -43.87 -42.59 43.53 -0.07 -0.07 -2.13 -44.15 0.07 76.75 -34.41 -8.22 13.48 3.32 -0.99 7.72 -12.79 11.32 7.03 66.99 -20.13 -20.33 -6.54 -58.92 19.13 -19.94 -19.55 -58.41 19.24 -33.95 35.61 -23.16 0.14 97.78 -62.07 163.68 0 190.92 -57.45 -367.11 3.48 -105.88 -351.48 3.52 366.98 -351.53 105.87 367.12 -3.5 105.8 351.5 -2.45 -261.07 -102.38 -90.11z"/>
   <polygon class="fil0" points="12243.26,3605.56 12188.55,3497.59 12175.66,3497.62 12176.01,3540.28 "/>
   <polygon class="fil0" points="12289.32,3447.75 12327.15,3459.9 12346.68,3440.79 12312.45,3440.79 "/>
   <polygon class="fil0" points="2078.4,3524.52 2080.72,3487.31 2045.24,3524.62 "/>
   <polygon class="fil0" points="2079.56,3527.04 2045.69,3527.11 2151.74,3643.67 2153,3644.88 "/>
   <polygon class="fil0" points="2165.86,3485.78 2079.49,3524.52 2142.29,3524.31 "/>
   <polygon class="fil0" points="2324.21,3526.24 2263.22,3644.61 2382.26,3528.23 2382.75,3526.02 "/>
   <polygon class="fil0" points="2321.71,3462.86 2337.1,3456.83 2256.91,3456.83 2268.27,3462.86 "/>
   <polygon class="fil0" points="2299.71,3484.31 2234.94,3524.17 2324,3523.82 2301.15,3487.31 2382.37,3523.47 2358.11,3510.58 "/>
   <polygon class="fil0" points="2268.27,3462.86 2145.57,3462.86 2167.98,3484.86 2234.29,3463.37 2299.71,3484.31 2302.85,3481.24 "/>
   <polygon class="fil0" points="2314.25,3646.95 2380.35,3537.44 2381.38,3532.76 2262.6,3648.87 2235.79,3717.68 2367.29,3600.36 2370.6,3584.6 "/>
   <path class="fil0" d="M2420.95 3523.47l-32.37 0.14 -1.74 -38.45 34.11 38.31zm29.51 0l-26.09 0 -33.77 -37.86 59.86 37.86zm-107.9 -68.56l0 0.2 44.21 28.04 -0.07 0 -64.98 -20.3 -18.86 18.39 55.26 29.34 28.93 13.03 -4.44 0 -0.24 -0.14 0.85 0.46 -0.48 2.09 1.77 0 -2.26 2.21 -0.88 4.53 4.57 -4.51 -5.6 9.19 -9.75 47.16 53.08 -58.76 27.15 0 -83.54 74.51 -58.84 282.93 172.13 -324.22 359.33 74.82 -324.19 -172.15 74.78 -359.4 -172.14 324.23 -359.32 -74.87 194.3 103.22 88.83 0 0.41 0z"/>
   <polygon class="fil0" points="2015.57,3524.76 2041.63,3524.62 2079.83,3484.52 2145.57,3462.86 2130.59,3456.83 2256.91,3456.83 2253.32,3454.92 2125.61,3454.92 "/>
  </g>
 </g>
</svg>
