<svg width="23" height="16" viewBox="0 0 23 16" fill="none" xmlns="http://www.w3.org/2000/svg">
<g clip-path="url(#clip0)">
<path d="M11.7417 10.3278C12.529 9.2526 12.9999 7.93194 12.9999 6.50023C12.9999 2.91626 10.0839 0.000244141 6.49996 0.000244141C2.91599 0.000244141 0 2.91626 0 6.50023C0 10.0842 2.91602 13.0002 6.49999 13.0002C7.93169 13.0002 9.25248 12.5292 10.3277 11.7419L14.5859 16.0002L16 14.5861C16 14.5861 11.7417 10.3278 11.7417 10.3278ZM6.49999 11.0002C4.01854 11.0002 2.00001 8.98168 2.00001 6.50023C2.00001 4.01879 4.01854 2.00025 6.49999 2.00025C8.98143 2.00025 11 4.01879 11 6.50023C11 8.98168 8.9814 11.0002 6.49999 11.0002Z" fill="white"/>
<path d="M19.3633 7.91699H22.1523V6.17383H19.3633V3.2207H17.5723V6.17383H14.7832V7.91699H17.5723V10.9043H19.3633V7.91699Z" fill="white"/>
</g>
<defs>
<clipPath id="clip0">
<rect width="23" height="16" fill="white"/>
</clipPath>
</defs>
</svg>
